<svg xmlns="http://www.w3.org/2000/svg" version="1.1" xmlns:xlink="http://www.w3.org/1999/xlink" viewBox="0 0 200 200"><rect width="200" height="200" fill="url('#gradient')"></rect><defs><linearGradient id="gradient" gradientTransform="rotate(45 0.5 0.5)"><stop offset="0%" stop-color="#dee90b"></stop><stop offset="100%" stop-color="#d9e241"></stop></linearGradient></defs><g><g fill="#1b3855" transform="matrix(3.377061194576768,0,0,3.377061194576768,6.371367248478904,124.01028041081273)" stroke="#0e5278" stroke-width="0.2"><path d="M12.96-14.22L12.96 0L9.55 0L9.55-5.94L4.50-5.94L4.50 0L1.07 0L1.07-14.22L4.50-14.22L4.50-8.57L9.55-8.57L9.55-14.22L12.96-14.22ZM26.01-14.22L26.01-11.57L21.74-11.57L21.74 0L18.31 0L18.31-11.57L14.12-11.57L14.12-14.22L26.01-14.22ZM27.45-14.22L31.95-14.22L35.13-4.33L38.29-14.22L42.80-14.22L42.80 0L39.37 0L39.37-3.32L39.70-10.12L36.26 0L33.99 0L30.55-10.13L30.88-3.32L30.88 0L27.45 0L27.45-14.22ZM48.41-14.22L48.41-2.64L54.38-2.64L54.38 0L44.98 0L44.98-14.22L48.41-14.22Z"></path></g></g></svg>